# xmcd
#
# Track frame offsets: 
#        150
#        19122
#        39556
#        62221
#        85045
#        107696
#        131655
#        154705
#        177290
#
# Disc length: 2660 seconds
#
# Revision: 0
# Processed by: cddbd v1.5.2PL0 Copyright (c) Steve Scherf et al.
# Submitted via: ExactAudioCopy v0.99pb4
#
DISCID=6d0a6209
DTITLE=Joseph Muruaru - Ruta Wira
DYEAR=2009
DGENRE=Gospel
TTITLE0=Ukumaka niki?
TTITLE1=ndukanjikare haraya
TTITLE2=Ngai ndatiagira andu mauthi
TTITLE3=Ruta wira
TTITLE4=Mbeca ni njega
TTITLE5=Weka wega niwe weika
TTITLE6=Ngai njerera
TTITLE7=Muthenya niwakinya
TTITLE8=Ngutuma ndugu
EXTD=
EXTT0=
EXTT1=
EXTT2=
EXTT3=
EXTT4=
EXTT5=
EXTT6=
EXTT7=
EXTT8=
PLAYORDER=
